<?xml version="1.0" encoding="UTF-8"?>
<svg version="1.1" xmlns="http://www.w3.org/2000/svg" width="239" height="138">
<path d="M0 0 C78.87 0 157.74 0 239 0 C239 45.54 239 91.08 239 138 C160.13 138 81.26 138 0 138 C0 92.46 0 46.92 0 0 Z " fill="#FCFDFE" transform="translate(0,0)"/>
<path d="M0 0 C17.5 0 17.5 0 25 5 C23.68952644 7.78016353 22.17921749 10.14551982 20.375 12.625 C17.43274537 17.29593836 16.97030899 21.60107955 18 27 C19.79646854 29.93423195 20.9441071 31.47205355 24 33 C28.63213493 33.55512815 31.98172127 33.6364242 36 31.125 C39.41446417 27.49713182 39.44059514 24.57624173 39.43359375 19.73828125 C38.79548796 15.70844198 36.81769722 13.15090716 34.3125 10.0078125 C33 8 33 8 33 4 C40.16585525 -1.52794548 48.10894094 0 57 0 C57 18.81 57 37.62 57 57 C38.19 57 19.38 57 0 57 C0 38.19 0 19.38 0 0 Z " fill="#FCFDFE" transform="translate(90,10)"/>
<path d="M0 0 C22 0 22 0 31 5 C34.16318671 5.27942673 34.16318671 5.27942673 36.875 3.0625 C45.22378757 -2.4476998 55.16508754 0 65 0 C65 21.45 65 42.9 65 65 C43.55 65 22.1 65 0 65 C0 43.55 0 22.1 0 0 Z M4 4 C4 22.81 4 41.62 4 61 C22.81 61 41.62 61 61 61 C61 42.19 61 23.38 61 4 C47.32363306 3.24521786 47.32363306 3.24521786 36 9 C37.31047356 11.78016353 38.82078251 14.14551982 40.625 16.625 C43.56725463 21.29593836 44.02969101 25.60107955 43 31 C41.20353146 33.93423195 40.0558929 35.47205355 37 37 C32.36786507 37.55512815 29.01827873 37.6364242 25 35.125 C21.58553583 31.49713182 21.55940486 28.57624173 21.56640625 23.73828125 C22.20451204 19.70844198 24.18230278 17.15090716 26.6875 14.0078125 C28.36477441 11.84177249 28.36477441 11.84177249 28 8 C19.17958779 3.38932998 15.17045798 4 4 4 Z " fill="#2B68CB" transform="translate(86,6)"/>
<path d="M0 0 C4.85081373 2.89268709 7.34460321 6.96316916 9.12890625 12.26953125 C10.00224901 19.63201382 9.68103865 26.21407117 5.12890625 32.26953125 C0.88820138 36.92715935 -3.87415338 39.02488306 -10.125 39.53515625 C-11.21683594 39.53 -12.30867188 39.52484375 -13.43359375 39.51953125 C-14.52800781 39.5246875 -15.62242188 39.52984375 -16.75 39.53515625 C-20.09605466 39.25038564 -23.40486036 38.73576464 -25.87109375 36.26953125 C-25.95968021 33.5305904 -25.98632854 30.81699855 -25.96875 28.078125 C-25.96733505 27.25828629 -25.9659201 26.43844757 -25.96446228 25.59376526 C-25.95884664 22.96481743 -25.94629154 20.33595352 -25.93359375 17.70703125 C-25.92858076 15.92903768 -25.92401751 14.15104279 -25.91992188 12.37304688 C-25.90887214 8.0051758 -25.89159706 3.63736777 -25.87109375 -0.73046875 C-16.97740056 -3.81663262 -8.6783817 -3.94218623 0 0 Z " fill="#2E69CD" transform="translate(51.87109375,81.73046875)"/>
<path d="M0 0 C4.85861852 2.10220299 7.66264187 5.28463403 10 10 C11.03988441 16.29573431 11.11956379 22.32127472 7.375 27.6875 C3.34731606 32.1470568 -0.59354163 33.03822952 -6.4375 33.375 C-11.10931269 33.23342992 -14.52319599 32.18857155 -18 29 C-21.7091686 24.23733972 -22.65140626 19.27903047 -22.38671875 13.328125 C-21.58516523 8.50261087 -18.92803021 5.81755042 -15.375 2.6875 C-10.49257797 -0.78158934 -5.86555674 -0.72004765 0 0 Z " fill="#306BCD" transform="translate(201,88)"/>
<path d="M0 0 C4.12593192 2.87855716 7.06537651 6.00862953 8.6875 10.875 C9.25134129 16.56762838 8.99469906 21.02444138 5.6875 25.875 C1.49117308 30.10572304 -2.15632066 32.01329891 -8.125 32.1875 C-14.38626372 32.10547471 -17.37680918 29.86163005 -21.6875 25.4375 C-24.17807913 19.97738421 -24.04917051 14.77588116 -23.3125 8.875 C-18.76637522 -1.09150432 -9.82688149 -3.33743145 0 0 Z " fill="#306BCD" transform="translate(90.3125,89.125)"/>
<path d="M0 0 C2.3125 1.8125 2.3125 1.8125 3.1875 4.5 C3.22875 5.263125 3.27 6.02625 3.3125 6.8125 C1.625 7.9375 1.625 7.9375 -0.6875 8.8125 C-2.36049959 8.16188905 -4.02609237 7.49216676 -5.6875 6.8125 C-10.51411943 6.35282196 -12.71184484 6.32467242 -17.0625 8.5 C-20.47646043 11.50753657 -21.4067574 13.4437343 -21.9375 17.921875 C-22.231606 23.39959923 -21.35673659 26.51425142 -17.6875 30.8125 C-14.37379 33.02164 -13.3428979 33.03731553 -9.5 32.9375 C-8.59894531 32.91945312 -7.69789063 32.90140625 -6.76953125 32.8828125 C-6.08246094 32.85960937 -5.39539063 32.83640625 -4.6875 32.8125 C-4.3575 29.8425 -4.0275 26.8725 -3.6875 23.8125 C-4.986875 23.833125 -6.28625 23.85375 -7.625 23.875 C-8.97915633 23.89649454 -10.33506083 23.88398199 -11.6875 23.8125 C-12.6875 22.8125 -12.6875 22.8125 -12.8125 20.3125 C-12.6875 17.8125 -12.6875 17.8125 -11.6875 16.8125 C-9.17613896 16.71274968 -6.69846585 16.67367817 -4.1875 16.6875 C-3.48496094 16.68363281 -2.78242188 16.67976563 -2.05859375 16.67578125 C3.18588622 16.68588622 3.18588622 16.68588622 4.3125 17.8125 C4.61717105 20.9281292 4.59079403 24.05879362 4.625 27.1875 C4.65400391 28.0640625 4.68300781 28.940625 4.71289062 29.84375 C4.77683402 36.2774396 4.77683402 36.2774396 2.54296875 38.8515625 C-4.38234997 41.8351499 -12.94706873 42.01178251 -20.125 39.6875 C-24.87166645 37.59541416 -27.49461662 34.21086764 -29.796875 29.58203125 C-30.91798053 26.09578642 -31.02564721 23.03448249 -31.0625 19.375 C-31.09085938 18.09753906 -31.11921875 16.82007812 -31.1484375 15.50390625 C-30.48296993 10.17452614 -27.8984309 6.41801751 -23.75 3.0625 C-16.59116594 -2.19705156 -8.38913838 -2.70158694 0 0 Z " fill="#2F6ACD" transform="translate(167.6875,80.1875)"/>
<path d="M0 0 C0.66 0.598125 1.32 1.19625 2 1.8125 C2.125 4.42578125 2.125 4.42578125 2 6.8125 C0.64455078 6.74289063 0.64455078 6.74289063 -0.73828125 6.671875 C-2.50751953 6.61773437 -2.50751953 6.61773437 -4.3125 6.5625 C-5.48425781 6.51609375 -6.65601563 6.4696875 -7.86328125 6.421875 C-11.03611155 6.50920934 -11.03611155 6.50920934 -12.890625 8.546875 C-14.09263499 11.00168412 -14.43283975 12.59091265 -14.4375 15.3125 C-14.45683594 16.0653125 -14.47617188 16.818125 -14.49609375 17.59375 C-13.7889099 20.756588 -12.59674882 21.90678682 -10 23.8125 C-6.95559865 24.29445275 -6.95559865 24.29445275 -3.75 24.0625 C-2.13351563 24.00835937 -2.13351563 24.00835937 -0.484375 23.953125 C0.33546875 23.90671875 1.1553125 23.8603125 2 23.8125 C2.33 25.1325 2.66 26.4525 3 27.8125 C0.71550773 30.33331906 -1.1454513 31.67556153 -4.53515625 32.21875 C-10.88045396 32.42822338 -15.04102955 31.86063914 -20 27.8125 C-23.4779212 23.22702652 -24.62031944 18.61978756 -24.31640625 12.9140625 C-23.60434538 8.1845718 -21.56135023 5.10910488 -18.0625 2 C-12.56448719 -1.92715201 -6.31809999 -2.50091458 0 0 Z " fill="#336DCE" transform="translate(128,89.1875)"/>
<path d="M0 0 C10.65517241 0 10.65517241 0 15 3 C18.02463566 6.22627804 18.23610751 9.1723431 18.375 13.4375 C18.22804427 17.98700449 17.80196755 21.26404327 15 25 C9.6878494 28.79439328 7.17273584 28 0 28 C0 18.76 0 9.52 0 0 Z " fill="#F9FBFD" transform="translate(34,86)"/>
<path d="M0 0 C3.12540725 3.02122701 3.91539172 6.0862306 4.3125 10.375 C3.94175182 14.67567891 3.28852869 16.2173988 0 19 C-3.83983599 19.6171165 -6.00285296 19.53692533 -9.4375 17.6875 C-11.97379983 13.3250643 -11.72286969 8.91104253 -11 4 C-8.30810235 -0.63006396 -5.09269281 -0.74075532 0 0 Z " fill="#F8FAFD" transform="translate(199,95)"/>
<path d="M0 0 C3.6875 0.3125 3.6875 0.3125 6.125 1.625 C8.66129983 5.9874357 8.41036969 10.40145747 7.6875 15.3125 C6.125 18 6.125 18 3.6875 19.3125 C0.1875 19.875 0.1875 19.875 -3.3125 19.3125 C-6.49300641 16.62130226 -7.22413066 15.00683057 -7.75 10.875 C-7.07461887 5.37546795 -5.87761233 0.55449173 0 0 Z " fill="#F8FAFD" transform="translate(82.3125,94.6875)"/>
<path d="M0 0 C2.5471199 0.37553691 3.72840784 0.70053391 5.484375 2.63671875 C10.00699301 9.96503497 10.00699301 9.96503497 9 15 C7.4375 17.875 7.4375 17.875 5 20 C1.5 20.625 1.5 20.625 -2 20 C-4.80480311 17.55478703 -5.80302495 15.8666902 -6.625 12.25 C-5.68904002 7.38300811 -2.92913469 3.92294825 0 0 Z " fill="#F6F9FC" transform="translate(117,20)"/>
<path d="M0 0 C2.3125 -0.25 2.3125 -0.25 5 0 C6.8125 2 6.8125 2 8 4 C8.66 2.68 9.32 1.36 10 0 C10.66 0 11.32 0 12 0 C12.99 2.31 13.98 4.62 15 7 C16.32 6.67 17.64 6.34 19 6 C17.68 5.01 16.36 4.02 15 3 C15.33 2.01 15.66 1.02 16 0 C18.64 0 21.28 0 24 0 C24 0.99 24 1.98 24 3 C25.32 3 26.64 3 28 3 C28.33 2.01 28.66 1.02 29 0 C29 2.64 29 5.28 29 8 C28.67 7.01 28.34 6.02 28 5 C26.68 5 25.36 5 24 5 C24 6.32 24 7.64 24 9 C20.06607877 10.28057332 16.09077625 10.18379459 12 10.1875 C11.2884375 10.19974609 10.576875 10.21199219 9.84375 10.22460938 C6.065513 10.2351828 3.20306342 10.11035168 0 8 C0 5.36 0 2.72 0 0 Z " fill="#F3F6FC" transform="translate(84,128)"/>
<path d="M0 0 C2.5 0.125 2.5 0.125 5 1 C6.3125 3.0625 6.3125 3.0625 7 5 C7.66 3.35 8.32 1.7 9 0 C9.66 0 10.32 0 11 0 C11.66 1.65 12.32 3.3 13 5 C13.33 3.35 13.66 1.7 14 0 C15.98 0 17.96 0 20 0 C19.979375 0.928125 19.95875 1.85625 19.9375 2.8125 C19.84230396 6.02286011 19.84230396 6.02286011 21 9 C18.9137674 11.0862326 14.558261 10.18514112 11.6875 10.1875 C10.91470703 10.19974609 10.14191406 10.21199219 9.34570312 10.22460938 C1.88495596 10.24385464 1.88495596 10.24385464 -1 8 C-1.875 5 -1.875 5 -2 2 C-1.34 1.34 -0.68 0.68 0 0 Z " fill="#B2C8EC" transform="translate(124,128)"/>
<path d="M0 0 C1.98 0 3.96 0 6 0 C5.979375 0.928125 5.95875 1.85625 5.9375 2.8125 C5.84230396 6.02286011 5.84230396 6.02286011 7 9 C6 10 6 10 2.40234375 10.09765625 C0.91403133 10.0909822 -0.57426432 10.07902183 -2.0625 10.0625 C-3.20041992 10.05573242 -3.20041992 10.05573242 -4.36132812 10.04882812 C-6.24091871 10.0370068 -8.12046899 10.01907078 -10 10 C-9.34 9.34 -8.68 8.68 -8 8 C-7.34 8.33 -6.68 8.66 -6 9 C-6 8.01 -6 7.02 -6 6 C-4.35 6.33 -2.7 6.66 -1 7 C-0.67 4.69 -0.34 2.38 0 0 Z " fill="#DEE8F7" transform="translate(138,128)"/>
<path d="M0 0 C2.64 0 5.28 0 8 0 C8 0.99 8 1.98 8 3 C9.32 3 10.64 3 12 3 C12.33 2.01 12.66 1.02 13 0 C13 2.64 13 5.28 13 8 C12.67 7.01 12.34 6.02 12 5 C10.68 5 9.36 5 8 5 C8 6.32 8 7.64 8 9 C5.75 9.6875 5.75 9.6875 3 10 C0.6875 8.5625 0.6875 8.5625 -1 7 C0.32 6.67 1.64 6.34 3 6 C1.68 5.01 0.36 4.02 -1 3 C-0.67 2.01 -0.34 1.02 0 0 Z " fill="#9AB6E6" transform="translate(100,128)"/>
<path d="M0 0 C2.375 -0.125 2.375 -0.125 5 0 C5.66 0.66 6.32 1.32 7 2 C6.67028521 5.29714793 6.3773161 6.6226839 4 9 C2.68 9 1.36 9 0 9 C0 6.03 0 3.06 0 0 Z " fill="#7DA2E0" transform="translate(146,128)"/>
<path d="M0 0 C2.375 -0.125 2.375 -0.125 5 0 C5.66 0.66 6.32 1.32 7 2 C6.625 5.125 6.625 5.125 6 8 C4.34385343 8.38218767 2.67542976 8.71395102 1 9 C0 8 0 8 -0.09765625 6.15234375 C-0.06510417 4.1015625 -0.03255208 2.05078125 0 0 Z " fill="#7EA3E0" transform="translate(84,128)"/>
<path d="M0 0 C1.65 0 3.3 0 5 0 C5.82638376 2.89234315 6 4.88742431 6 8 C5.34 7.67 4.68 7.34 4 7 C4.33 6.34 4.66 5.68 5 5 C3.68 5 2.36 5 1 5 C0.67 5.99 0.34 6.98 0 8 C0 5.36 0 2.72 0 0 Z " fill="#7BA0DF" transform="translate(115,128)"/>
<path d="M0 0 C1.65 0 3.3 0 5 0 C5 2.64 5 5.28 5 8 C4.34 7.67 3.68 7.34 3 7 C3 6.34 3 5.68 3 5 C2.34 5 1.68 5 1 5 C0.67 5.99 0.34 6.98 0 8 C0 5.36 0 2.72 0 0 Z " fill="#81A5E1" transform="translate(139,128)"/>
<path d="M0 0 C0.66 0 1.32 0 2 0 C4.09230769 4.43076923 4.09230769 4.43076923 3.625 7.3125 C3.41875 7.869375 3.2125 8.42625 3 9 C2.67 8.34 2.34 7.68 2 7 C1.01 6.67 0.02 6.34 -1 6 C-1.33 6.66 -1.66 7.32 -2 8 C-1.125 2.25 -1.125 2.25 0 0 Z " fill="#759CDE" transform="translate(133,128)"/>
<path d="M0 0 C0.66 0 1.32 0 2 0 C2.66 2.97 3.32 5.94 4 9 C2.35 8.01 0.7 7.02 -1 6 C-1.33 6.66 -1.66 7.32 -2 8 C-1.125 1.125 -1.125 1.125 0 0 Z " fill="#779DDE" transform="translate(94,128)"/>
<path d="M0 0 C1.32 0.33 2.64 0.66 4 1 C4 1.66 4 2.32 4 3 C4.99 3.33 5.98 3.66 7 4 C3.37 4 -0.26 4 -4 4 C-3.34 3.34 -2.68 2.68 -2 2 C-1.34 2.33 -0.68 2.66 0 3 C0 2.01 0 1.02 0 0 Z " fill="#FDFDFE" transform="translate(132,134)"/>
<path d="M0 0 C0.66 0.33 1.32 0.66 2 1 C2 3.31 2 5.62 2 8 C3.32 8.33 4.64 8.66 6 9 C4.02 9 2.04 9 0 9 C-1.125 3.375 -1.125 3.375 0 0 Z " fill="#F4F7FC" transform="translate(144,129)"/>
<path d="M0 0 C0.99 0.33 1.98 0.66 3 1 C3 2.65 3 4.3 3 6 C2.01 6 1.02 6 0 6 C0 4.02 0 2.04 0 0 Z " fill="#FCFDFE" transform="translate(148,129)"/>
<path d="M0 0 C0.99 0.33 1.98 0.66 3 1 C3 2.65 3 4.3 3 6 C2.01 6 1.02 6 0 6 C0 4.02 0 2.04 0 0 Z " fill="#FDFDFE" transform="translate(86,129)"/>
</svg>
